<svg data-v-423bf9ae="" xmlns="http://www.w3.org/2000/svg" viewBox="0 0 619.2856882195437 163" class="iconAbove"><!----><!----><!----><g data-v-423bf9ae="" id="17c02a42-8cfc-40db-b6cd-ec80227ba303" fill="#012F41" transform="matrix(5.102040717026833,0,0,5.102040717026833,1.9898001915931331,90.6530582145173)"><path d="M2.60 13.90L-0.39 13.90L-0.39 13.61L0.98 13.05L5.03 2.42L5.25 2.42L9.07 13.40L10.36 13.61L10.36 13.90L6.24 13.90L6.24 13.61L7.39 13.43L6.20 10.11L2.48 10.11L1.34 13.05L2.60 13.61L2.60 13.90ZM4.42 4.89L2.59 9.81L6.10 9.81L4.42 4.89ZM10.44 13.90L10.44 13.62L11.42 13.48L11.42 7.07L10.44 6.93L10.44 6.65L12.82 6.65L12.82 8.16L12.82 8.16Q13.34 7.41 14.04 6.97L14.04 6.97L14.04 6.97Q14.74 6.52 15.55 6.52L15.55 6.52L15.55 6.52Q16.56 6.52 17.14 7.03L17.14 7.03L17.14 7.03Q17.72 7.53 17.72 8.53L17.72 8.53L17.72 13.48L18.70 13.62L18.70 13.90L15.48 13.90L15.48 13.62L16.32 13.48L16.32 8.55L16.32 8.55Q16.32 7.83 16.03 7.43L16.03 7.43L16.03 7.43Q15.74 7.03 15.12 7.03L15.12 7.03L15.12 7.03Q14.48 7.03 13.88 7.50L13.88 7.50L13.88 7.50Q13.29 7.97 12.82 8.65L12.82 8.65L12.82 13.48L13.66 13.62L13.66 13.90L10.44 13.90ZM22.90 14.04L22.90 14.04Q21.91 14.04 21.15 13.57L21.15 13.57L21.15 13.57Q20.40 13.10 19.98 12.26L19.98 12.26L19.98 12.26Q19.56 11.41 19.56 10.28L19.56 10.28L19.56 10.28Q19.56 9.14 19.98 8.30L19.98 8.30L19.98 8.30Q20.40 7.45 21.15 6.99L21.15 6.99L21.15 6.99Q21.91 6.52 22.90 6.52L22.90 6.52L22.90 6.52Q23.72 6.52 24.32 6.95L24.32 6.95L24.32 6.95Q24.92 7.38 25.27 8.12L25.27 8.12L25.27 3.12L24.29 2.98L24.29 2.70L26.67 2.70L26.67 13.48L27.65 13.62L27.65 13.90L25.27 13.90L25.27 12.45L25.27 12.45Q24.92 13.19 24.32 13.62L24.32 13.62L24.32 13.62Q23.72 14.04 22.90 14.04L22.90 14.04ZM23.04 13.69L23.04 13.69Q23.66 13.69 24.16 13.34L24.16 13.34L24.16 13.34Q24.65 12.98 24.96 12.38L24.96 12.38L24.96 12.38Q25.26 11.79 25.27 11.09L25.27 11.09L25.27 9.48L25.27 9.48Q25.26 8.78 24.96 8.18L24.96 8.18L24.96 8.18Q24.65 7.59 24.16 7.23L24.16 7.23L24.16 7.23Q23.66 6.87 23.04 6.87L23.04 6.87L23.04 6.87Q21.10 6.87 21.10 9.58L21.10 9.58L21.10 10.98L21.10 10.98Q21.10 13.69 23.04 13.69L23.04 13.69ZM28.32 13.90L28.32 13.62L29.30 13.48L29.30 7.07L28.32 6.93L28.32 6.65L30.70 6.65L30.70 7.73L30.70 7.73Q31.58 6.52 32.69 6.52L32.69 6.52L32.69 6.52Q33.22 6.52 33.63 6.80L33.63 6.80L33.63 6.80Q34.03 7.07 34.03 7.57L34.03 7.57L34.03 7.57Q34.03 7.94 33.80 8.18L33.80 8.18L33.80 8.18Q33.56 8.43 33.17 8.43L33.17 8.43L33.17 8.43Q32.72 8.43 32.44 8.08L32.44 8.08L32.44 8.08Q32.59 7.88 32.59 7.66L32.59 7.66L32.59 7.66Q32.59 7.42 32.43 7.27L32.43 7.27L32.43 7.27Q32.27 7.13 32.00 7.13L32.00 7.13L32.00 7.13Q31.71 7.13 31.40 7.40L31.40 7.40L31.40 7.40Q31.09 7.67 30.70 8.25L30.70 8.25L30.70 13.48L31.82 13.62L31.82 13.90L28.32 13.90ZM38.43 14.04L38.43 14.04Q37.39 14.04 36.55 13.57L36.55 13.57L36.55 13.57Q35.71 13.10 35.22 12.25L35.22 12.25L35.22 12.25Q34.73 11.40 34.73 10.28L34.73 10.28L34.73 10.28Q34.73 9.16 35.22 8.31L35.22 8.31L35.22 8.31Q35.70 7.46 36.52 6.99L36.52 6.99L36.52 6.99Q37.34 6.52 38.35 6.52L38.35 6.52L38.35 6.52Q39.23 6.52 39.93 6.92L39.93 6.92L39.93 6.92Q40.63 7.31 41.02 8.00L41.02 8.00L41.02 8.00Q41.41 8.69 41.43 9.59L41.43 9.59L36.27 9.59L36.27 10.98L36.27 10.98Q36.27 12.21 36.83 12.97L36.83 12.97L36.83 12.97Q37.38 13.73 38.43 13.73L38.43 13.73L38.43 13.73Q39.40 13.73 40.14 13.19L40.14 13.19L40.14 13.19Q40.88 12.64 41.05 11.77L41.05 11.77L41.37 11.77L41.37 11.77Q41.17 12.81 40.38 13.43L40.38 13.43L40.38 13.43Q39.58 14.04 38.43 14.04L38.43 14.04ZM36.29 9.24L39.89 9.24L39.89 9.24Q39.89 8.02 39.51 7.43L39.51 7.43L39.51 7.43Q39.13 6.83 38.33 6.83L38.33 6.83L38.33 6.83Q37.39 6.83 36.88 7.49L36.88 7.49L36.88 7.49Q36.36 8.15 36.29 9.24L36.29 9.24ZM46.09 14.18L45.70 14.18L42.70 7.07L41.79 6.93L41.79 6.65L44.93 6.65L44.93 6.93L44.27 7.11L46.38 12.38L47.63 8.97L46.80 7.07L46.07 6.93L46.07 6.65L49.38 6.65L49.38 6.93L48.37 7.11L50.48 12.38L52.37 7.31L51.20 6.94L51.20 6.66L53.63 6.66L53.63 6.94L52.77 7.28L50.19 14.18L49.80 14.18L47.82 9.45L46.09 14.18ZM66.14 13.90L57.40 13.90L57.40 13.61L58.69 13.40L58.69 3.21L57.40 3.01L57.40 2.70L65.83 2.70L65.83 5.91L65.45 5.91L64.37 3.05L60.23 3.05L60.23 8.09L62.05 8.09L62.87 6.06L63.24 6.06L63.24 10.49L62.87 10.49L62.03 8.43L60.23 8.43L60.23 13.57L64.62 13.57L65.77 10.49L66.14 10.49L66.14 13.90ZM70.29 14.04L70.29 14.04Q69.15 14.04 68.38 13.55L68.38 13.55L68.38 13.55Q67.61 13.06 67.61 12.28L67.61 12.28L67.61 12.28Q67.61 11.87 67.82 11.64L67.82 11.64L67.82 11.64Q68.04 11.41 68.40 11.41L68.40 11.41L68.40 11.41Q68.68 11.41 68.88 11.55L68.88 11.55L68.88 11.55Q69.08 11.69 69.16 11.94L69.16 11.94L69.16 11.94Q68.85 12.28 68.85 12.66L68.85 12.66L68.85 12.66Q68.85 13.09 69.24 13.41L69.24 13.41L69.24 13.41Q69.64 13.73 70.29 13.73L70.29 13.73L70.29 13.73Q71.18 13.73 71.74 13.34L71.74 13.34L71.74 13.34Q72.30 12.94 72.30 12.26L72.30 12.26L72.30 12.26Q72.30 11.87 72.06 11.68L72.06 11.68L72.06 11.68Q71.82 11.48 71.13 11.23L71.13 11.23L69.02 10.46L69.02 10.46Q67.77 10.01 67.77 8.79L67.77 8.79L67.77 8.79Q67.77 7.80 68.46 7.16L68.46 7.16L68.46 7.16Q69.15 6.52 70.35 6.52L70.35 6.52L70.35 6.52Q71.34 6.52 72.05 6.98L72.05 6.98L72.05 6.98Q72.76 7.43 72.76 8.27L72.76 8.27L72.76 8.27Q72.76 8.61 72.58 8.81L72.58 8.81L72.58 8.81Q72.39 9.02 72.10 9.02L72.10 9.02L72.10 9.02Q71.81 9.02 71.62 8.86L71.62 8.86L71.62 8.86Q71.43 8.69 71.43 8.41L71.43 8.41L71.43 8.41Q71.61 8.27 71.68 8.11L71.68 8.11L71.68 8.11Q71.75 7.95 71.75 7.73L71.75 7.73L71.75 7.73Q71.75 7.34 71.41 7.08L71.41 7.08L71.41 7.08Q71.06 6.83 70.35 6.83L70.35 6.83L70.35 6.83Q69.73 6.83 69.29 7.02L69.29 7.02L69.29 7.02Q68.85 7.21 68.63 7.52L68.63 7.52L68.63 7.52Q68.40 7.83 68.40 8.15L68.40 8.15L68.40 8.15Q68.40 8.48 68.65 8.68L68.65 8.68L68.65 8.68Q68.89 8.88 69.55 9.11L69.55 9.11L71.51 9.81L71.51 9.81Q72.20 10.07 72.55 10.51L72.55 10.51L72.55 10.51Q72.90 10.96 72.90 11.68L72.90 11.68L72.90 11.68Q72.90 12.70 72.25 13.37L72.25 13.37L72.25 13.37Q71.61 14.04 70.29 14.04L70.29 14.04ZM77.83 14.04L77.83 14.04Q76.82 14.04 75.99 13.57L75.99 13.57L75.99 13.57Q75.17 13.10 74.68 12.24L74.68 12.24L74.68 12.24Q74.20 11.38 74.20 10.28L74.20 10.28L74.20 10.28Q74.20 9.11 74.71 8.26L74.71 8.26L74.71 8.26Q75.22 7.41 76.05 6.97L76.05 6.97L76.05 6.97Q76.87 6.52 77.83 6.52L77.83 6.52L77.83 6.52Q78.62 6.52 79.28 6.80L79.28 6.80L79.28 6.80Q79.94 7.07 80.33 7.56L80.33 7.56L80.33 7.56Q80.71 8.05 80.71 8.67L80.71 8.67L80.71 8.67Q80.71 9.13 80.47 9.37L80.47 9.37L80.47 9.37Q80.23 9.62 79.84 9.62L79.84 9.62L79.84 9.62Q79.46 9.62 79.21 9.37L79.21 9.37L79.21 9.37Q78.96 9.11 78.96 8.74L78.96 8.74L78.96 8.74Q79.17 8.60 79.25 8.43L79.25 8.43L79.25 8.43Q79.34 8.26 79.34 8.01L79.34 8.01L79.34 8.01Q79.34 7.49 78.92 7.16L78.92 7.16L78.92 7.16Q78.51 6.83 77.83 6.83L77.83 6.83L77.83 6.83Q76.82 6.83 76.28 7.55L76.28 7.55L76.28 7.55Q75.74 8.27 75.74 9.58L75.74 9.58L75.74 10.98L75.74 10.98Q75.74 12.22 76.27 12.98L76.27 12.98L76.27 12.98Q76.79 13.73 77.83 13.73L77.83 13.73L77.83 13.73Q78.78 13.73 79.48 13.20L79.48 13.20L79.48 13.20Q80.19 12.66 80.36 11.77L80.36 11.77L80.68 11.77L80.68 11.77Q80.49 12.81 79.71 13.43L79.71 13.43L79.71 13.43Q78.93 14.04 77.83 14.04L77.83 14.04ZM84.64 14.04L84.64 14.04Q83.64 14.04 83.06 13.54L83.06 13.54L83.06 13.54Q82.47 13.03 82.47 12.04L82.47 12.04L82.47 7.07L81.49 6.93L81.49 6.65L83.87 6.65L83.87 12.01L83.87 12.01Q83.87 12.73 84.17 13.13L84.17 13.13L84.17 13.13Q84.46 13.54 85.08 13.54L85.08 13.54L85.08 13.54Q85.72 13.54 86.32 13.11L86.32 13.11L86.32 13.11Q86.91 12.68 87.37 12.05L87.37 12.05L87.37 7.07L86.39 6.93L86.39 6.65L88.77 6.65L88.77 13.48L89.75 13.62L89.75 13.90L87.37 13.90L87.37 12.56L87.37 12.56Q86.87 13.26 86.16 13.65L86.16 13.65L86.16 13.65Q85.46 14.04 84.64 14.04L84.64 14.04ZM94.05 14.04L94.05 14.04Q93.06 14.04 92.30 13.57L92.30 13.57L92.30 13.57Q91.55 13.10 91.13 12.26L91.13 12.26L91.13 12.26Q90.71 11.41 90.71 10.28L90.71 10.28L90.71 10.28Q90.71 9.14 91.13 8.30L91.13 8.30L91.13 8.30Q91.55 7.45 92.30 6.99L92.30 6.99L92.30 6.99Q93.06 6.52 94.05 6.52L94.05 6.52L94.05 6.52Q94.86 6.52 95.47 6.95L95.47 6.95L95.47 6.95Q96.07 7.38 96.42 8.12L96.42 8.12L96.42 3.12L95.44 2.98L95.44 2.70L97.82 2.70L97.82 13.48L98.80 13.62L98.80 13.90L96.42 13.90L96.42 12.45L96.42 12.45Q96.07 13.19 95.47 13.62L95.47 13.62L95.47 13.62Q94.86 14.04 94.05 14.04L94.05 14.04ZM94.19 13.69L94.19 13.69Q94.81 13.69 95.31 13.34L95.31 13.34L95.31 13.34Q95.80 12.98 96.10 12.38L96.10 12.38L96.10 12.38Q96.40 11.79 96.42 11.09L96.42 11.09L96.42 9.48L96.42 9.48Q96.40 8.78 96.10 8.18L96.10 8.18L96.10 8.18Q95.80 7.59 95.31 7.23L95.31 7.23L95.31 7.23Q94.81 6.87 94.19 6.87L94.19 6.87L94.19 6.87Q92.25 6.87 92.25 9.58L92.25 9.58L92.25 10.98L92.25 10.98Q92.25 13.69 94.19 13.69L94.19 13.69ZM103.39 14.04L103.39 14.04Q102.35 14.04 101.51 13.57L101.51 13.57L101.51 13.57Q100.67 13.10 100.18 12.25L100.18 12.25L100.18 12.25Q99.69 11.40 99.69 10.28L99.69 10.28L99.69 10.28Q99.69 9.16 100.18 8.31L100.18 8.31L100.18 8.31Q100.66 7.46 101.48 6.99L101.48 6.99L101.48 6.99Q102.30 6.52 103.31 6.52L103.31 6.52L103.31 6.52Q104.19 6.52 104.89 6.92L104.89 6.92L104.89 6.92Q105.59 7.31 105.98 8.00L105.98 8.00L105.98 8.00Q106.37 8.69 106.39 9.59L106.39 9.59L101.23 9.59L101.23 10.98L101.23 10.98Q101.23 12.21 101.79 12.97L101.79 12.97L101.79 12.97Q102.34 13.73 103.39 13.73L103.39 13.73L103.39 13.73Q104.36 13.73 105.10 13.19L105.10 13.19L105.10 13.19Q105.84 12.64 106.01 11.77L106.01 11.77L106.33 11.77L106.33 11.77Q106.13 12.81 105.34 13.43L105.34 13.43L105.34 13.43Q104.54 14.04 103.39 14.04L103.39 14.04ZM101.25 9.24L104.85 9.24L104.85 9.24Q104.85 8.02 104.47 7.43L104.47 7.43L104.47 7.43Q104.09 6.83 103.29 6.83L103.29 6.83L103.29 6.83Q102.35 6.83 101.84 7.49L101.84 7.49L101.84 7.49Q101.32 8.15 101.25 9.24L101.25 9.24ZM107.32 13.90L107.32 13.62L108.30 13.48L108.30 7.07L107.32 6.93L107.32 6.65L109.70 6.65L109.70 7.73L109.70 7.73Q110.59 6.52 111.69 6.52L111.69 6.52L111.69 6.52Q112.22 6.52 112.63 6.80L112.63 6.80L112.63 6.80Q113.04 7.07 113.04 7.57L113.04 7.57L113.04 7.57Q113.04 7.94 112.80 8.18L112.80 8.18L112.80 8.18Q112.56 8.43 112.17 8.43L112.17 8.43L112.17 8.43Q111.72 8.43 111.44 8.08L111.44 8.08L111.44 8.08Q111.59 7.88 111.59 7.66L111.59 7.66L111.59 7.66Q111.59 7.42 111.43 7.27L111.43 7.27L111.43 7.27Q111.27 7.13 111.01 7.13L111.01 7.13L111.01 7.13Q110.71 7.13 110.40 7.40L110.40 7.40L110.40 7.40Q110.10 7.67 109.70 8.25L109.70 8.25L109.70 13.48L110.82 13.62L110.82 13.90L107.32 13.90ZM117.36 14.04L117.36 14.04Q116.35 14.04 115.53 13.57L115.53 13.57L115.53 13.57Q114.70 13.10 114.22 12.24L114.22 12.24L114.22 12.24Q113.74 11.38 113.74 10.28L113.74 10.28L113.74 10.28Q113.74 9.17 114.22 8.32L114.22 8.32L114.22 8.32Q114.70 7.46 115.53 6.99L115.53 6.99L115.53 6.99Q116.35 6.52 117.36 6.52L117.36 6.52L117.36 6.52Q118.37 6.52 119.20 6.99L119.20 6.99L119.20 6.99Q120.02 7.46 120.50 8.32L120.50 8.32L120.50 8.32Q120.99 9.17 120.99 10.28L120.99 10.28L120.99 10.28Q120.99 11.38 120.50 12.24L120.50 12.24L120.50 12.24Q120.02 13.10 119.20 13.57L119.20 13.57L119.20 13.57Q118.37 14.04 117.36 14.04L117.36 14.04ZM117.36 13.73L117.36 13.73Q118.40 13.73 118.92 12.98L118.92 12.98L118.92 12.98Q119.45 12.22 119.45 10.98L119.45 10.98L119.45 9.58L119.45 9.58Q119.45 8.33 118.92 7.58L118.92 7.58L118.92 7.58Q118.40 6.83 117.36 6.83L117.36 6.83L117.36 6.83Q116.33 6.83 115.80 7.58L115.80 7.58L115.80 7.58Q115.28 8.33 115.28 9.58L115.28 9.58L115.28 10.98L115.28 10.98Q115.28 12.22 115.80 12.98L115.80 12.98L115.80 12.98Q116.33 13.73 117.36 13.73L117.36 13.73Z"></path></g><defs data-v-423bf9ae=""><linearGradient data-v-423bf9ae="" gradientTransform="rotate(25)" id="66b3504c-9e52-4b85-8649-885655c1a80f" x1="0%" y1="0%" x2="100%" y2="0%"><stop data-v-423bf9ae="" offset="0%" style="stop-color: rgb(8, 199, 214); stop-opacity: 1;"></stop><stop data-v-423bf9ae="" offset="100%" style="stop-color: rgb(2, 2, 62); stop-opacity: 1;"></stop></linearGradient></defs><g data-v-423bf9ae="" id="21609292-90f6-4c34-92d9-928a4482cf47" transform="matrix(1.1421319354630703,0,0,1.1421319354630703,253.49340905926695,-11.50659857012758)" stroke="none" fill="url(#66b3504c-9e52-4b85-8649-885655c1a80f)"><path d="M77.8 22.2L50 10.6 22.2 22.2 10.6 50l11.5 27.8L50 89.4l27.8-11.5L89.4 50 77.8 22.2zm9.1 26.3l-12.5-3.4v-.6c0-2-1.1-3.8-2.7-4.8L77.3 25l9.6 23.5zM45.8 60.3c-.3-2.3-1.6-4.2-3.5-5.3l5-12.1c.9.3 1.8.4 2.7.4s1.9-.1 2.7-.4l6.2 15c-.8.6-1.4 1.4-1.6 2.4H45.8zm15.4-3.1c-.2 0-.4 0-.7.1l-6.2-15c1.3-.7 2.3-1.7 3.1-2.9l6.2 3.4c-.2.6-.3 1.2-.3 1.8 0 1.9 1 3.6 2.4 4.6L62 57.3c-.3-.1-.5-.1-.8-.1zM38.7 54c-.8 0-1.6.1-2.3.4l-5.6-11.6c.9-.7 1.5-1.8 1.5-3.1v-.1l9.3-2.3c.7 2.1 2.2 3.9 4.2 4.9l-5 12c-.7-.1-1.4-.2-2.1-.2zm30.1-14.9c-1.8 0-3.3.8-4.3 2.1l-6.2-3.4c.5-1.1.7-2.3.7-3.5 0-1-.2-1.9-.5-2.8l17-7.1L70 39.2c-.4-.1-.8-.1-1.2-.1zm-27.7-3.5l-9.3 2.3c-.7-1.3-2-2.2-3.6-2.2h-.3l-3.6-11.3 17.1 7.1c-.3.9-.5 1.8-.5 2.8.1.5.1.9.2 1.3zm-15.7 6.9c.7.7 1.7 1.2 2.8 1.2.3 0 .6 0 .9-.1l5.6 11.6c-1 .6-1.8 1.5-2.4 2.5L13.6 50l11.8-7.5zM63.6 58l3.8-8.1c.5.1 1 .2 1.5.2 2.2 0 4.2-1.3 5-3.2L86 50.1 64.5 59c-.2-.4-.6-.7-.9-1zm13.1-34zm-18.9 5.9c-1.4-2.5-4-4.2-6.9-4.5V12.9l24 9.9-17.1 7.1zm-8.7-17v12.5c-3 .3-5.5 2-6.9 4.5l-17.1-7.1 24-9.9zM22.8 25.2l3.5 11c-1.2.7-2 2-2 3.4 0 .5.1.9.3 1.4l-11.2 7.1 9.4-22.9zM12.7 49.5zm.5 2.1l18.5 7.7c-.2.6-.3 1.2-.3 1.9 0 1.7.6 3.2 1.6 4.5l-9.9 10-9.9-24.1zm10.3 24.9zm.9.4l9.9-10c1.2.9 2.7 1.5 4.4 1.5.7 0 1.4-.1 2-.3l7.7 18.7-24-9.9zm17.9-9.5c1.9-1.1 3.3-3.1 3.5-5.4h11.5c.2 1 .8 1.9 1.7 2.4l-9 21.7-7.7-18.7zm18.3-2.3c.2 0 .4.1.6.1.8 0 1.5-.2 2.1-.6l12.3 12.3-24 9.9 9-21.7zm16.3 10.5L64.5 63.3c.4-.6.6-1.3.6-2.1 0-.2 0-.4-.1-.6l21.7-9-9.8 24zm10.4-26.1z"></path></g><!----></svg>